<svg fill="none" height="32" viewBox="0 0 32 32" width="32" xmlns="http://www.w3.org/2000/svg">
  <path d="M16 29C16 29 3.5 20 3.5 11.5C3.5 8.5 5.5 4 10 4C13 4 15 6 16 8C17 6 19 4 22 4C26.5 4 28.5 8.5 28.5 11.5C28.5 20 16 29 16 29Z" fill="#ff4a76" stroke="#ff4a76" stroke-width="1.5" stroke-linecap="round" stroke-linejoin="round"/>
  <path d="M16 29C16 29 3.5 20 3.5 11.5C3.5 8.5 5.5 4 10 4C13 4 15 6 16 8C17 6 19 4 22 4" fill="#ff2c64"/>
  <path d="M22 10.5C24 10.5 25 9 25 7.5" stroke="#ffb6c9" stroke-width="1.5" stroke-linecap="round" stroke-linejoin="round"/>
</svg>