<?xml version="1.0" encoding="UTF-8"?>
<svg width="24" height="24" viewBox="0 0 24 24" fill="none" stroke="currentColor" xmlns="http://www.w3.org/2000/svg">
  <path d="M6 5V11C6 14.314 8.686 17 12 17C15.314 17 18 14.314 18 11V5" strokeWidth="2" strokeLinecap="round"/>
  <path d="M18 5C18 3 19 3 20 3C21 3 21.5 4 21 6C20.5 8 19 8.5 18 8" strokeWidth="2" strokeLinecap="round"/>
  <path d="M6 5C6 3 5 3 4 3C3 3 2.5 4 3 6C3.5 8 5 8.5 6 8" strokeWidth="2" strokeLinecap="round"/>
  <path d="M12 17V20" strokeWidth="2" strokeLinecap="round"/>
  <path d="M8 20H16" strokeWidth="2" strokeLinecap="round"/>
  <path d="M9 20V22" strokeWidth="2" strokeLinecap="round"/>
  <path d="M15 20V22" strokeWidth="2" strokeLinecap="round"/>
  <path d="M9 22H15" strokeWidth="2" strokeLinecap="round"/>
</svg>