<svg width="80" height="80" viewBox="0 0 80 80" fill="none" xmlns="http://www.w3.org/2000/svg">
  <!-- Professional circular background -->
  <circle cx="40" cy="40" r="40" fill="url(#paint0_radial)" />
  
  <!-- Stylized bird icon -->
  <g transform="translate(19, 18)">
    <!-- Bird body -->
    <path d="M30 35C38.2843 35 45 28.2843 45 20C45 11.7157 38.2843 5 30 5C21.7157 5 15 11.7157 15 20C15 28.2843 21.7157 35 30 35Z" fill="#6D4B73" />
    <!-- Wing -->
    <path d="M25 22C25 22 15 18 12 25C9 32 14 33 14 33L25 22Z" fill="#9B6A9B" />
    <!-- Beak -->
    <path d="M44 20L50 17V22L44 20Z" fill="#9B6A9B" />
    <!-- Eye -->
    <circle cx="36" cy="18" r="3" fill="white" />
    <circle cx="37" cy="17" r="1" fill="#333" />
    <!-- Tail feathers -->
    <path d="M10 30L5 26M10 25L3 24M10 20L5 15" stroke="#9B6A9B" stroke-width="2" stroke-linecap="round" />
  </g>
  
  <!-- Subtle outer ring for depth -->
  <circle cx="40" cy="40" r="38" stroke="#9b6a9b" stroke-width="1" fill="none" stroke-opacity="0.3" />
  
  <!-- Gradients for background -->
  <defs>
    <radialGradient id="paint0_radial" cx="0" cy="0" r="1" gradientUnits="userSpaceOnUse" gradientTransform="translate(40 40) rotate(90) scale(40)">
      <stop offset="0%" stop-color="#f0e2f5" />
      <stop offset="100%" stop-color="#d5b8db" />
    </radialGradient>
  </defs>
</svg>
