<svg width="80" height="80" viewBox="0 0 80 80" fill="none" xmlns="http://www.w3.org/2000/svg">
  <!-- Professional circular background with reddish tint for negative emotion -->
  <circle cx="40" cy="40" r="40" fill="url(#paint0_radial)" />
  
  <!-- Semi-transparent red overlay -->
  <circle cx="40" cy="40" r="40" fill="#982a2a" fill-opacity="0.12" />
  
  <!-- Stylized concerned bird icon -->
  <g transform="translate(19, 18)">
    <!-- Bird body -->
    <path d="M30 35C38.2843 35 45 28.2843 45 20C45 11.7157 38.2843 5 30 5C21.7157 5 15 11.7157 15 20C15 28.2843 21.7157 35 30 35Z" fill="#934A4A" />
    <!-- Wing -->
    <path d="M25 22C25 22 15 18 12 25C9 32 14 33 14 33L25 22Z" fill="#B96A6A" />
    <!-- Beak -->
    <path d="M44 20L50 17V22L44 20Z" fill="#B96A6A" />
    <!-- Alarmed eye -->
    <circle cx="36" cy="18" r="3" fill="white" />
    <circle cx="37" cy="17" r="1.5" fill="#333" />
    <!-- Alarmed eyebrow -->
    <path d="M33 14L39 16" stroke="#333" stroke-width="1.5" stroke-linecap="round" />
    <!-- Alert feathers -->
    <path d="M28 8L30 3M33 7L36 2M38 8L42 4" stroke="#B96A6A" stroke-width="1.5" stroke-linecap="round" />
    <!-- Tail feathers -->
    <path d="M10 30L5 26M10 25L3 24M10 20L5 15" stroke="#B96A6A" stroke-width="2" stroke-linecap="round" />
  </g>
  
  <!-- Subtle outer ring -->
  <circle cx="40" cy="40" r="38" stroke="#b96a6a" stroke-width="1.5" fill="none" stroke-opacity="0.4" />
  
  <!-- Gradients for background -->
  <defs>
    <radialGradient id="paint0_radial" cx="0" cy="0" r="1" gradientUnits="userSpaceOnUse" gradientTransform="translate(40 40) rotate(90) scale(40)">
      <stop offset="0%" stop-color="#f9e8e8" />
      <stop offset="100%" stop-color="#ebc5c5" />
    </radialGradient>
  </defs>
</svg>
