<svg width="80" height="80" viewBox="0 0 80 80" fill="none" xmlns="http://www.w3.org/2000/svg">
  <!-- Professional circular background with blue tint for sad emotion -->
  <circle cx="40" cy="40" r="40" fill="url(#paint0_radial)" />
  
  <!-- Semi-transparent blue overlay -->
  <circle cx="40" cy="40" r="40" fill="#2a5298" fill-opacity="0.15" />
  
  <!-- Stylized sad bird icon -->
  <g transform="translate(19, 18)">
    <!-- Bird body -->
    <path d="M30 35C38.2843 35 45 28.2843 45 20C45 11.7157 38.2843 5 30 5C21.7157 5 15 11.7157 15 20C15 28.2843 21.7157 35 30 35Z" fill="#4A6B93" />
    <!-- Wing -->
    <path d="M25 22C25 22 15 18 12 25C9 32 14 33 14 33L25 22Z" fill="#6A8EB9" />
    <!-- Beak -->
    <path d="M44 21L50 19V23L44 21Z" fill="#6A8EB9" />
    <!-- Sad eye -->
    <circle cx="36" cy="18" r="3" fill="white" />
    <circle cx="37" cy="17" r="1" fill="#333" />
    <!-- Sad eyebrow -->
    <path d="M33 15L39 17" stroke="#333" stroke-width="1.5" stroke-linecap="round" />
    <!-- Tail feathers drooping -->
    <path d="M10 32L5 30M10 27L3 27M10 22L5 19" stroke="#6A8EB9" stroke-width="2" stroke-linecap="round" />
  </g>
  
  <!-- Subtle outer ring -->
  <circle cx="40" cy="40" r="38" stroke="#6a8eb9" stroke-width="1.5" fill="none" stroke-opacity="0.4" />
  
  <!-- Gradients for background -->
  <defs>
    <radialGradient id="paint0_radial" cx="0" cy="0" r="1" gradientUnits="userSpaceOnUse" gradientTransform="translate(40 40) rotate(90) scale(40)">
      <stop offset="0%" stop-color="#e8eef9" />
      <stop offset="100%" stop-color="#c5d5eb" />
    </radialGradient>
  </defs>
</svg>
